<mxfile modified="2021-11-10T10:18:29.616Z" host="app.diagrams.net" agent="5.0 (X11)" etag="qOjxig9lFpw58zlWf5dd" version="15.7.1" type="github">
  <diagram id="k7Rn1JQ0faa2xJi0YRyc" name="Page-1">
    <mxGraphModel dx="1863" dy="-591" grid="1" gridSize="10" guides="1" tooltips="1" connect="1" arrows="1" fold="1" page="1" pageScale="1" pageWidth="1169" pageHeight="827" math="0" shadow="0">
      <root>
        <mxCell id="0" />
        <mxCell id="1" parent="0" />
        <mxCell id="wrqc28VTqw9KhE_zI22n-14" style="edgeStyle=orthogonalEdgeStyle;rounded=0;orthogonalLoop=1;jettySize=auto;html=1;exitX=1;exitY=0.5;exitDx=0;exitDy=0;exitPerimeter=0;entryX=0;entryY=0.5;entryDx=0;entryDy=0;fontSize=20;" edge="1" parent="1" source="wrqc28VTqw9KhE_zI22n-1" target="wrqc28VTqw9KhE_zI22n-9">
          <mxGeometry relative="1" as="geometry" />
        </mxCell>
        <mxCell id="wrqc28VTqw9KhE_zI22n-1" value="" style="perimeter=ellipsePerimeter;verticalLabelPosition=bottom;shadow=0;dashed=0;align=center;fillColor=#ffffff;html=1;verticalAlign=top;strokeWidth=1;shape=mxgraph.electrical.instruments.signal_generator;" vertex="1" parent="1">
          <mxGeometry x="792.5" y="1800" width="90" height="90" as="geometry" />
        </mxCell>
        <mxCell id="wrqc28VTqw9KhE_zI22n-13" style="edgeStyle=orthogonalEdgeStyle;rounded=0;orthogonalLoop=1;jettySize=auto;html=1;exitX=1;exitY=0.5;exitDx=0;exitDy=0;exitPerimeter=0;entryX=0;entryY=0.5;entryDx=0;entryDy=0;fontSize=20;" edge="1" parent="1" source="wrqc28VTqw9KhE_zI22n-2" target="wrqc28VTqw9KhE_zI22n-10">
          <mxGeometry relative="1" as="geometry" />
        </mxCell>
        <mxCell id="wrqc28VTqw9KhE_zI22n-2" value="" style="perimeter=ellipsePerimeter;verticalLabelPosition=bottom;shadow=0;dashed=0;align=center;fillColor=#ffffff;html=1;verticalAlign=top;strokeWidth=1;shape=mxgraph.electrical.instruments.signal_generator;" vertex="1" parent="1">
          <mxGeometry x="794.5" y="1940" width="90" height="90" as="geometry" />
        </mxCell>
        <mxCell id="wrqc28VTqw9KhE_zI22n-12" style="edgeStyle=orthogonalEdgeStyle;rounded=0;orthogonalLoop=1;jettySize=auto;html=1;entryX=0;entryY=0.5;entryDx=0;entryDy=0;fontSize=20;" edge="1" parent="1" source="wrqc28VTqw9KhE_zI22n-3" target="wrqc28VTqw9KhE_zI22n-11">
          <mxGeometry relative="1" as="geometry" />
        </mxCell>
        <mxCell id="wrqc28VTqw9KhE_zI22n-3" value="" style="perimeter=ellipsePerimeter;verticalLabelPosition=bottom;shadow=0;dashed=0;align=center;fillColor=#ffffff;html=1;verticalAlign=top;strokeWidth=1;shape=mxgraph.electrical.instruments.signal_generator;" vertex="1" parent="1">
          <mxGeometry x="791.5" y="2200" width="90" height="90" as="geometry" />
        </mxCell>
        <mxCell id="wrqc28VTqw9KhE_zI22n-4" value="АЗИМУТ" style="text;html=1;strokeColor=none;fillColor=none;align=center;verticalAlign=middle;whiteSpace=wrap;rounded=0;fontSize=20;" vertex="1" parent="1">
          <mxGeometry x="671.5" y="1905" width="120" height="30" as="geometry" />
        </mxCell>
        <mxCell id="wrqc28VTqw9KhE_zI22n-8" value="УМ" style="text;html=1;strokeColor=none;fillColor=none;align=center;verticalAlign=middle;whiteSpace=wrap;rounded=0;fontSize=20;" vertex="1" parent="1">
          <mxGeometry x="660" y="2180" width="120" height="30" as="geometry" />
        </mxCell>
        <mxCell id="wrqc28VTqw9KhE_zI22n-9" value="M" style="verticalLabelPosition=middle;shadow=0;dashed=0;align=center;fillColor=#ffffff;html=1;verticalAlign=middle;strokeWidth=1;shape=ellipse;fontSize=32;fontColor=#000000;perimeter=ellipsePerimeter;" vertex="1" parent="1">
          <mxGeometry x="916" y="1820" width="50" height="50" as="geometry" />
        </mxCell>
        <mxCell id="wrqc28VTqw9KhE_zI22n-10" value="M" style="verticalLabelPosition=middle;shadow=0;dashed=0;align=center;fillColor=#ffffff;html=1;verticalAlign=middle;strokeWidth=1;shape=ellipse;fontSize=32;fontColor=#000000;perimeter=ellipsePerimeter;" vertex="1" parent="1">
          <mxGeometry x="916" y="1960" width="50" height="50" as="geometry" />
        </mxCell>
        <mxCell id="wrqc28VTqw9KhE_zI22n-11" value="M" style="verticalLabelPosition=middle;shadow=0;dashed=0;align=center;fillColor=#ffffff;html=1;verticalAlign=middle;strokeWidth=1;shape=ellipse;fontSize=32;fontColor=#000000;perimeter=ellipsePerimeter;" vertex="1" parent="1">
          <mxGeometry x="916" y="2220" width="50" height="50" as="geometry" />
        </mxCell>
        <mxCell id="wrqc28VTqw9KhE_zI22n-15" value="Частотный преобразователь" style="text;html=1;align=center;verticalAlign=middle;resizable=0;points=[];autosize=1;strokeColor=none;fillColor=none;fontSize=16;" vertex="1" parent="1">
          <mxGeometry x="693.5" y="1760" width="260" height="20" as="geometry" />
        </mxCell>
        <mxCell id="wrqc28VTqw9KhE_zI22n-16" value="Мотор" style="text;html=1;align=center;verticalAlign=middle;resizable=0;points=[];autosize=1;strokeColor=none;fillColor=none;fontSize=16;" vertex="1" parent="1">
          <mxGeometry x="906" y="1800" width="70" height="20" as="geometry" />
        </mxCell>
        <mxCell id="wrqc28VTqw9KhE_zI22n-17" value="" style="shape=flexArrow;endArrow=classic;startArrow=classic;html=1;rounded=0;fontSize=16;strokeWidth=2;shadow=1;sketch=0;" edge="1" parent="1">
          <mxGeometry width="100" height="100" relative="1" as="geometry">
            <mxPoint x="634.5" y="2335" as="sourcePoint" />
            <mxPoint x="634.5" y="1785" as="targetPoint" />
          </mxGeometry>
        </mxCell>
        <mxCell id="wrqc28VTqw9KhE_zI22n-18" value="" style="shape=flexArrow;endArrow=classic;startArrow=classic;html=1;rounded=0;fontSize=16;strokeWidth=2;shadow=1;sketch=0;" edge="1" parent="1">
          <mxGeometry width="100" height="100" relative="1" as="geometry">
            <mxPoint x="641.5" y="1850" as="sourcePoint" />
            <mxPoint x="791.5" y="1850" as="targetPoint" />
          </mxGeometry>
        </mxCell>
        <mxCell id="wrqc28VTqw9KhE_zI22n-19" value="" style="shape=flexArrow;endArrow=classic;startArrow=classic;html=1;rounded=0;fontSize=16;strokeWidth=2;shadow=1;sketch=0;" edge="1" parent="1">
          <mxGeometry width="100" height="100" relative="1" as="geometry">
            <mxPoint x="640.5" y="1990" as="sourcePoint" />
            <mxPoint x="790.5" y="1990" as="targetPoint" />
          </mxGeometry>
        </mxCell>
        <mxCell id="wrqc28VTqw9KhE_zI22n-20" value="" style="shape=flexArrow;endArrow=classic;startArrow=classic;html=1;rounded=0;fontSize=16;strokeWidth=2;shadow=1;sketch=0;" edge="1" parent="1">
          <mxGeometry width="100" height="100" relative="1" as="geometry">
            <mxPoint x="640" y="2244.71" as="sourcePoint" />
            <mxPoint x="790" y="2244.71" as="targetPoint" />
          </mxGeometry>
        </mxCell>
        <mxCell id="wrqc28VTqw9KhE_zI22n-21" value="" style="perimeter=ellipsePerimeter;verticalLabelPosition=bottom;shadow=0;dashed=0;align=center;fillColor=#ffffff;html=1;verticalAlign=top;strokeWidth=1;shape=mxgraph.electrical.instruments.ampermeter;" vertex="1" parent="1">
          <mxGeometry x="429.5" y="2101" width="40" height="40" as="geometry" />
        </mxCell>
        <mxCell id="wrqc28VTqw9KhE_zI22n-22" value="" style="perimeter=ellipsePerimeter;verticalLabelPosition=bottom;shadow=0;dashed=0;align=center;fillColor=#ffffff;html=1;verticalAlign=top;strokeWidth=1;shape=mxgraph.electrical.instruments.ampermeter;" vertex="1" parent="1">
          <mxGeometry x="428.5" y="2160" width="40" height="40" as="geometry" />
        </mxCell>
        <mxCell id="wrqc28VTqw9KhE_zI22n-23" value="Azimuth &lt;font style=&quot;font-size: 24px&quot;&gt;&lt;b&gt;X&lt;/b&gt;&lt;/font&gt;" style="text;html=1;resizable=0;points=[];autosize=1;align=left;verticalAlign=top;spacingTop=-4;" vertex="1" parent="1">
          <mxGeometry x="332" y="2103" width="90" height="20" as="geometry" />
        </mxCell>
        <mxCell id="wrqc28VTqw9KhE_zI22n-24" value="Elevation &lt;font style=&quot;font-size: 24px&quot;&gt;Y&lt;/font&gt;" style="text;html=1;resizable=0;points=[];autosize=1;align=left;verticalAlign=top;spacingTop=-4;" vertex="1" parent="1">
          <mxGeometry x="330" y="2166" width="90" height="20" as="geometry" />
        </mxCell>
        <mxCell id="wrqc28VTqw9KhE_zI22n-25" value="" style="shape=flexArrow;endArrow=classic;startArrow=classic;html=1;rounded=0;fontSize=16;strokeWidth=2;shadow=1;sketch=0;" edge="1" parent="1">
          <mxGeometry width="100" height="100" relative="1" as="geometry">
            <mxPoint x="473" y="2121.5700000000006" as="sourcePoint" />
            <mxPoint x="623" y="2121.5700000000006" as="targetPoint" />
          </mxGeometry>
        </mxCell>
        <mxCell id="wrqc28VTqw9KhE_zI22n-26" value="" style="shape=flexArrow;endArrow=classic;startArrow=classic;html=1;rounded=0;fontSize=16;strokeWidth=2;shadow=1;sketch=0;" edge="1" parent="1">
          <mxGeometry width="100" height="100" relative="1" as="geometry">
            <mxPoint x="473" y="2179.2900000000004" as="sourcePoint" />
            <mxPoint x="623" y="2179.2900000000004" as="targetPoint" />
          </mxGeometry>
        </mxCell>
        <mxCell id="wrqc28VTqw9KhE_zI22n-27" value="Енкодеры" style="text;html=1;align=center;verticalAlign=middle;resizable=0;points=[];autosize=1;strokeColor=none;fillColor=none;fontSize=16;" vertex="1" parent="1">
          <mxGeometry x="398.5" y="2058" width="100" height="20" as="geometry" />
        </mxCell>
        <mxCell id="wrqc28VTqw9KhE_zI22n-28" value="&lt;div&gt;Микроконтроллер&lt;/div&gt;&lt;div&gt;&lt;br&gt;&lt;/div&gt;&lt;div&gt;с ПО&lt;br&gt;&lt;/div&gt;" style="rounded=0;whiteSpace=wrap;html=1;fontSize=16;" vertex="1" parent="1">
          <mxGeometry x="520" y="2340" width="191" height="90" as="geometry" />
        </mxCell>
        <mxCell id="wrqc28VTqw9KhE_zI22n-31" value="&lt;div&gt;Шина&lt;/div&gt;&lt;div&gt;CAN&lt;/div&gt;&lt;div&gt;125k&lt;br&gt;&lt;/div&gt;" style="text;html=1;align=center;verticalAlign=middle;resizable=0;points=[];autosize=1;strokeColor=none;fillColor=none;fontSize=16;" vertex="1" parent="1">
          <mxGeometry x="600" y="1720" width="60" height="60" as="geometry" />
        </mxCell>
        <mxCell id="wrqc28VTqw9KhE_zI22n-32" value="Система управления ОПП" style="rounded=0;whiteSpace=wrap;html=1;fontSize=16;" vertex="1" parent="1">
          <mxGeometry x="33" y="2200" width="240" height="255" as="geometry" />
        </mxCell>
        <mxCell id="wrqc28VTqw9KhE_zI22n-33" value="" style="shape=flexArrow;endArrow=classic;startArrow=classic;html=1;rounded=0;fontSize=16;" edge="1" parent="1">
          <mxGeometry width="100" height="100" relative="1" as="geometry">
            <mxPoint x="290" y="2385" as="sourcePoint" />
            <mxPoint x="510" y="2385" as="targetPoint" />
          </mxGeometry>
        </mxCell>
        <mxCell id="wrqc28VTqw9KhE_zI22n-34" value="COM Port 115200" style="text;html=1;align=center;verticalAlign=middle;resizable=0;points=[];autosize=1;strokeColor=none;fillColor=none;fontSize=16;" vertex="1" parent="1">
          <mxGeometry x="330" y="2350" width="160" height="20" as="geometry" />
        </mxCell>
        <mxCell id="wrqc28VTqw9KhE_zI22n-38" value="" style="pointerEvents=1;verticalLabelPosition=bottom;shadow=0;dashed=0;align=center;html=1;verticalAlign=top;shape=mxgraph.electrical.electro-mechanical.changeover_contact;fontSize=16;rotation=0;" vertex="1" parent="1">
          <mxGeometry x="891" y="2041" width="75" height="20" as="geometry" />
        </mxCell>
        <mxCell id="wrqc28VTqw9KhE_zI22n-49" value="" style="pointerEvents=1;verticalLabelPosition=bottom;shadow=0;dashed=0;align=center;html=1;verticalAlign=top;shape=mxgraph.electrical.electro-mechanical.changeover_contact;fontSize=16;rotation=0;" vertex="1" parent="1">
          <mxGeometry x="891" y="2081" width="75" height="20" as="geometry" />
        </mxCell>
        <mxCell id="wrqc28VTqw9KhE_zI22n-53" value="" style="pointerEvents=1;verticalLabelPosition=bottom;shadow=0;dashed=0;align=center;html=1;verticalAlign=top;shape=mxgraph.electrical.electro-mechanical.changeover_contact;fontSize=16;rotation=0;" vertex="1" parent="1">
          <mxGeometry x="891" y="2140" width="75" height="20" as="geometry" />
        </mxCell>
        <mxCell id="wrqc28VTqw9KhE_zI22n-54" value="" style="pointerEvents=1;verticalLabelPosition=bottom;shadow=0;dashed=0;align=center;html=1;verticalAlign=top;shape=mxgraph.electrical.electro-mechanical.changeover_contact;fontSize=16;rotation=0;" vertex="1" parent="1">
          <mxGeometry x="891" y="2180" width="75" height="20" as="geometry" />
        </mxCell>
        <mxCell id="wrqc28VTqw9KhE_zI22n-55" value="Концевые выключатели" style="text;html=1;align=center;verticalAlign=middle;resizable=0;points=[];autosize=1;strokeColor=none;fillColor=none;fontSize=16;" vertex="1" parent="1">
          <mxGeometry x="770" y="2111" width="220" height="20" as="geometry" />
        </mxCell>
        <mxCell id="wrqc28VTqw9KhE_zI22n-56" value="АЗ" style="text;html=1;align=center;verticalAlign=middle;resizable=0;points=[];autosize=1;strokeColor=none;fillColor=none;fontSize=16;" vertex="1" parent="1">
          <mxGeometry x="990" y="2061" width="40" height="20" as="geometry" />
        </mxCell>
        <mxCell id="wrqc28VTqw9KhE_zI22n-57" value="УМ" style="text;html=1;align=center;verticalAlign=middle;resizable=0;points=[];autosize=1;strokeColor=none;fillColor=none;fontSize=16;" vertex="1" parent="1">
          <mxGeometry x="976" y="2170" width="40" height="20" as="geometry" />
        </mxCell>
        <mxCell id="wrqc28VTqw9KhE_zI22n-58" value="" style="aspect=fixed;html=1;points=[];align=center;image;fontSize=12;image=img/lib/azure2/azure_stack/User_Subscriptions.svg;" vertex="1" parent="1">
          <mxGeometry x="33" y="1722" width="68" height="66" as="geometry" />
        </mxCell>
        <mxCell id="wrqc28VTqw9KhE_zI22n-60" value="" style="sketch=0;pointerEvents=1;shadow=0;dashed=0;html=1;strokeColor=none;fillColor=#505050;labelPosition=center;verticalLabelPosition=bottom;verticalAlign=top;outlineConnect=0;align=center;shape=mxgraph.office.devices.workstation_pc;fontSize=16;" vertex="1" parent="1">
          <mxGeometry x="133" y="1700" width="140" height="188" as="geometry" />
        </mxCell>
        <mxCell id="wrqc28VTqw9KhE_zI22n-61" value="" style="shape=flexArrow;endArrow=classic;startArrow=classic;html=1;rounded=0;shadow=0;sketch=0;fontSize=16;strokeWidth=1;" edge="1" parent="1">
          <mxGeometry width="100" height="100" relative="1" as="geometry">
            <mxPoint x="152.41" y="2150" as="sourcePoint" />
            <mxPoint x="152.41" y="1900" as="targetPoint" />
          </mxGeometry>
        </mxCell>
        <mxCell id="wrqc28VTqw9KhE_zI22n-62" value="Ethernet/UDP" style="text;html=1;align=center;verticalAlign=middle;resizable=0;points=[];autosize=1;strokeColor=none;fillColor=none;fontSize=16;" vertex="1" parent="1">
          <mxGeometry x="80" y="2160" width="130" height="20" as="geometry" />
        </mxCell>
        <mxCell id="wrqc28VTqw9KhE_zI22n-63" value="Система наведения" style="text;html=1;strokeColor=none;fillColor=none;align=center;verticalAlign=middle;whiteSpace=wrap;rounded=0;fontSize=16;" vertex="1" parent="1">
          <mxGeometry x="48" y="1660" width="210" height="30" as="geometry" />
        </mxCell>
      </root>
    </mxGraphModel>
  </diagram>
</mxfile>
